<svg width="23" height="23" viewBox="0 0 23 23" fill="none" xmlns="http://www.w3.org/2000/svg">
<path d="M20.1897 8.45998L8.18971 20.46C7.91361 20.7302 7.56709 20.9173 7.18971 21L3.64971 21.71C3.32743 21.7737 2.99441 21.7571 2.68008 21.6615C2.36576 21.566 2.07981 21.3945 1.84751 21.1622C1.6152 20.9299 1.4437 20.6439 1.34816 20.3296C1.25262 20.0153 1.23598 19.6823 1.29972 19.36L1.99971 15.85C2.08239 15.4726 2.26951 15.1261 2.53971 14.85L14.3797 2.99998C14.7663 2.60387 15.2282 2.28909 15.7383 2.07417C16.2483 1.85925 16.7962 1.74854 17.3497 1.74854C17.9032 1.74854 18.4511 1.85925 18.9612 2.07417C19.4712 2.28909 19.9331 2.60387 20.3197 2.99998C21.0087 3.75992 21.3793 4.75549 21.3551 5.78095C21.3309 6.80641 20.9137 7.78338 20.1897 8.50998V8.45998Z" stroke="#212325" stroke-width="2" stroke-linecap="round" stroke-linejoin="round"/>
</svg>
