<svg xmlns="http://www.w3.org/2000/svg" xmlns:xlink="http://www.w3.org/1999/xlink" viewBox="0 0 1500 1500" width="1000" height="1000" preserveAspectRatio="xMidYMid meet" style="width: 70%; height: 70%; transform: translate3d(0px, 0px, 0px); content-visibility: visible;"><defs><clipPath id="__lottie_element_3466"><rect width="1500" height="1500" x="0" y="0"></rect></clipPath><clipPath id="__lottie_element_3468"><path d="M0,0 L1500,0 L1500,1500 L0,1500z"></path></clipPath><clipPath id="__lottie_element_3472"><path d="M0,0 L1500,0 L1500,1500 L0,1500z"></path></clipPath><clipPath id="__lottie_element_3491"><path d="M0,0 L1500,0 L1500,1500 L0,1500z"></path></clipPath><clipPath id="__lottie_element_3492"><path fill="#ffffff" clip-rule="nonzero" d=" M1185.0179443359375,444.0409851074219 C1185.0179443359375,444.0409851074219 335.6130065917969,470.1059875488281 335.6130065917969,470.1059875488281 C335.6130065917969,470.1059875488281 407.5539855957031,892.385009765625 667.0789794921875,652.2509765625 C671.9080200195312,647.7830200195312 668.2979736328125,777.9240112304688 668.2979736328125,777.9240112304688 C668.2979736328125,777.9240112304688 669.8090209960938,785.4219970703125 679.6840209960938,785.531982421875 C689.5590209960938,785.6420288085938 895.8099975585938,786.0780029296875 895.8099975585938,786.0780029296875 C895.8099975585938,786.0780029296875 903.8090209960938,785.0650024414062 904.7940063476562,775.5640258789062 C905.2589721679688,771.0800170898438 903.6079711914062,675.18798828125 902.7949829101562,595.1409912109375 C1136.1490478515625,831.3350219726562 1185.0179443359375,444.0409851074219 1185.0179443359375,444.0409851074219" fill-opacity="1"></path></clipPath></defs><g clip-path="url(#__lottie_element_3466)"><g clip-path="url(#__lottie_element_3468)" transform="matrix(1.899999976158142,0,0,1.899999976158142,-679,-445)" opacity="1" style="display: block;"><g transform="matrix(1,0,0,1,814,779)" opacity="1" style="display: block;"><g opacity="1" transform="matrix(1,0,0,1,-61,-79)"><path fill="rgb(211,198,236)" fill-opacity="1" d=" M0,-329 C181.70199584960938,-329 329,-181.70199584960938 329,0 C329,181.70199584960938 181.70199584960938,154 0,154 C-181.70199584960938,154 -329,181.70199584960938 -329,0 C-329,-181.70199584960938 -181.70199584960938,-329 0,-329z"></path></g></g><g clip-path="url(#__lottie_element_3472)" transform="matrix(1.440000057220459,0,0,1.440000057220459,-330,-330)" opacity="1" style="display: block;"><g transform="matrix(0.9999986290931702,-0.0016511379508301616,0.0016511379508301616,0.9999986290931702,749.88427734375,749.8638916015625)" opacity="1" style="display: block;"><g opacity="1" transform="matrix(1,0,0,1,0,0)"><path fill="rgb(131,87,221)" fill-opacity="1" d=" M140.5,-137 C140.5,-137 -118.49500274658203,-137.8260040283203 -130.9949951171875,-137.8260040283203 C-143.4949951171875,-137.8260040283203 -141.9949951171875,-126.32599639892578 -141.9949951171875,-126.32599639892578 C-141.9949951171875,-126.32599639892578 -141.9949951171875,-76.82599639892578 -141.9949951171875,-76.82599639892578 C-141.9949951171875,-76.82599639892578 153.5,-75 153.5,-75 C153.5,-75 153.5,-119.5 153.5,-128.5 C153.5,-137.5 140.5,-137 140.5,-137z"></path><path stroke-linecap="butt" stroke-linejoin="miter" fill-opacity="0" stroke-miterlimit="4" stroke="rgb(89,64,140)" stroke-opacity="1" stroke-width="4" d=" M140.5,-137 C140.5,-137 -118.49500274658203,-137.8260040283203 -130.9949951171875,-137.8260040283203 C-143.4949951171875,-137.8260040283203 -141.9949951171875,-126.32599639892578 -141.9949951171875,-126.32599639892578 C-141.9949951171875,-126.32599639892578 -141.9949951171875,-76.82599639892578 -141.9949951171875,-76.82599639892578 C-141.9949951171875,-76.82599639892578 153.5,-75 153.5,-75 C153.5,-75 153.5,-119.5 153.5,-128.5 C153.5,-137.5 140.5,-137 140.5,-137z"></path></g><g opacity="1" transform="matrix(1,0,0,1,0,0)"><path stroke-linecap="butt" stroke-linejoin="miter" fill-opacity="0" stroke-miterlimit="4" stroke="rgb(89,64,140)" stroke-opacity="1" stroke-width="4" d=" M-117.99500274658203,-123.32599639892578 C-117.99500274658203,-123.32599639892578 116,-122.5 116,-122.5"></path></g></g><g clip-path="url(#__lottie_element_3491)" transform="matrix(1.2299983501434326,-0.0020308997482061386,0.0020308997482061386,1.2299983501434326,-224.07472229003906,-150.52821350097656)" opacity="1" style="display: block;"><g clip-path="url(#__lottie_element_3492)"><g transform="matrix(0.999958336353302,-0.009127945639193058,0.009127945639193058,0.999958336353302,749.7540893554688,749.8501586914062)" opacity="1" style="display: block;"><g opacity="1" transform="matrix(1,0,0,1,0,0)"><path fill="rgb(163,214,160)" fill-opacity="1" d=" M81.5,-185 C81.5,-185 -61,-96 -61,-96 C-61,-96 2.5,9.5 2.5,9.5 C2.5,9.5 147.5,-79.5 147.5,-79.5 C147.5,-79.5 81.5,-185 81.5,-185z"></path><path stroke-linecap="butt" stroke-linejoin="miter" fill-opacity="0" stroke-miterlimit="4" stroke="rgb(89,64,140)" stroke-opacity="1" stroke-width="4" d=" M81.5,-185 C81.5,-185 -61,-96 -61,-96 C-61,-96 2.5,9.5 2.5,9.5 C2.5,9.5 147.5,-79.5 147.5,-79.5 C147.5,-79.5 81.5,-185 81.5,-185z"></path></g><g opacity="1" transform="matrix(1,0,0,1,0,0)"><path fill="rgb(255,255,255)" fill-opacity="1" d=" M49.5,-155 C49.5,-155 -48.74399948120117,-93.54199981689453 -48.74399948120117,-93.54199981689453 C-48.74399948120117,-93.54199981689453 7.914000034332275,-2.2019999027252197 7.914000034332275,-2.2019999027252197 C7.914000034332275,-2.2019999027252197 134.59300231933594,-78.82099914550781 134.59300231933594,-78.82099914550781 C134.59300231933594,-78.82099914550781 96.5,-137 96.5,-137 C96.5,-137 86.5,-124 69,-128 C51.5,-132 49.5,-155 49.5,-155z"></path><path stroke-linecap="round" stroke-linejoin="miter" fill-opacity="0" stroke-miterlimit="4" stroke="rgb(89,64,140)" stroke-opacity="1" stroke-width="4" d=" M49.5,-155 C49.5,-155 -48.74399948120117,-93.54199981689453 -48.74399948120117,-93.54199981689453 C-48.74399948120117,-93.54199981689453 7.914000034332275,-2.2019999027252197 7.914000034332275,-2.2019999027252197 C7.914000034332275,-2.2019999027252197 134.59300231933594,-78.82099914550781 134.59300231933594,-78.82099914550781 C134.59300231933594,-78.82099914550781 96.5,-137 96.5,-137 C96.5,-137 86.5,-124 69,-128 C51.5,-132 49.5,-155 49.5,-155z"></path></g></g><g transform="matrix(0.8413787484169006,-0.5404459238052368,0.5404459238052368,0.8413787484169006,830.2095336914062,608.7568969726562)" opacity="1" fill="rgb(90,65,141)" font-size="40" font-family="Bloomer DEMO" font-style="normal" font-weight="400" aria-label="$" style="display: block;"><g stroke-linecap="butt" stroke-linejoin="round" stroke-miterlimit="4" transform="matrix(1,0,0,1,-10.12399959564209,0)" opacity="1" style="display: inherit;"><g><g transform="matrix(1,0,0,1,0,0)" opacity="1" style="display: block;"><path d=" M10.27,-11.29 C12.32,-9.88 13.6,-8.8 14.11,-8.03 C14.63,-7.26 14.88,-6.45 14.88,-5.59 C14.88,-4.75 14.67,-3.97 14.25,-3.23 C13.82,-2.5 13.25,-1.9 12.52,-1.45 C12,-1.13 11.25,-0.89 10.27,-0.72 C10.27,-0.72 10.27,-11.29 10.27,-11.29z M6.04,-19.15 C5.46,-19.98 5.18,-20.87 5.18,-21.82 C5.18,-22.83 5.49,-23.67 6.12,-24.35 C6.75,-25.02 7.72,-25.43 9.02,-25.59 C9.02,-25.59 9.02,-16.5 9.02,-16.5 C7.6,-17.44 6.61,-18.32 6.04,-19.15z M2.11,-1 C3.39,-0.48 4.55,-0.1 5.61,0.13 C6.66,0.35 7.8,0.49 9.02,0.55 C9.02,0.55 9.02,3.05 9.02,3.05 C9.02,3.05 10.27,3.05 10.27,3.05 C10.27,3.05 10.27,0.55 10.27,0.55 C12.7,0.34 14.59,-0.45 15.95,-1.82 C17.31,-3.18 17.99,-4.77 17.99,-6.56 C17.99,-8.18 17.52,-9.53 16.59,-10.62 C15.66,-11.7 13.55,-13.39 10.27,-15.68 C10.27,-15.68 10.27,-25.61 10.27,-25.61 C12.08,-25.42 13.44,-24.85 14.35,-23.9 C15.25,-22.94 15.79,-21.43 15.96,-19.36 C15.96,-19.36 16.72,-19.36 16.72,-19.36 C16.72,-19.36 16.72,-25.2 16.72,-25.2 C14.6,-26 13.35,-26.45 12.97,-26.54 C12.24,-26.72 11.34,-26.85 10.27,-26.91 C10.27,-26.91 10.27,-28.71 10.27,-28.71 C10.27,-28.71 9.02,-28.71 9.02,-28.71 C9.02,-28.71 9.02,-26.91 9.02,-26.91 C6.81,-26.67 5.11,-25.94 3.92,-24.75 C2.72,-23.55 2.13,-22.15 2.13,-20.55 C2.13,-19.13 2.47,-17.92 3.16,-16.93 C4.14,-15.54 6.09,-13.94 9.02,-12.13 C9.02,-12.13 9.02,-0.72 9.02,-0.72 C7.08,-0.9 5.62,-1.47 4.65,-2.42 C3.67,-3.37 3.11,-4.74 2.97,-6.52 C2.97,-6.52 2.11,-6.52 2.11,-6.52 C2.11,-6.52 2.11,-1 2.11,-1z"></path><g opacity="1" transform="matrix(0.4000000059604645,0,0,0.4000000059604645,0,0)"></g></g></g></g></g></g></g><g transform="matrix(0.9999986290931702,-0.0016511379508301616,0.0016511379508301616,0.9999986290931702,749.88427734375,749.8638916015625)" opacity="1" style="display: block;"><g opacity="1" transform="matrix(1,0,0,1,0,0)"><path fill="rgb(129,87,211)" fill-opacity="1" d=" M144.875,-103 C79.7229995727539,-103 -111.45700073242188,-103 -144.75,-103 C-150.35699462890625,-103 -153.5,-101 -153.5,-91 C-153.5,-40 -153.5,43 -153.5,57 C-153.5,71 -141.5,69 -141.5,69 C-141.5,69 130,70 142,70 C154,70 152.5,60 152.5,60 C152.5,60 152.5,-94.875 152.5,-94.875 C152.5,-94.875 152.875,-103 144.875,-103z"></path><path stroke-linecap="round" stroke-linejoin="miter" fill-opacity="0" stroke-miterlimit="4" stroke="rgb(89,64,140)" stroke-opacity="1" stroke-width="7" d=" M144.875,-103 C79.7229995727539,-103 -111.45700073242188,-103 -144.75,-103 C-150.35699462890625,-103 -153.5,-101 -153.5,-91 C-153.5,-40 -153.5,43 -153.5,57 C-153.5,71 -141.5,69 -141.5,69 C-141.5,69 130,70 142,70 C154,70 152.5,60 152.5,60 C152.5,60 152.5,-94.875 152.5,-94.875 C152.5,-94.875 152.875,-103 144.875,-103z"></path></g><g opacity="1" transform="matrix(1,0,0,1,0,0)"><path fill="rgb(160,133,213)" fill-opacity="1" d=" M-135.5,-91 C-135.5,-91 140,-91 140,-91 C140,-91 140,58 140,58 C140,58 -136,58 -136,58"></path><path stroke-linecap="round" stroke-linejoin="miter" fill-opacity="0" stroke-miterlimit="4" stroke-dasharray=" 10 10" stroke-dashoffset="37" stroke="rgb(89,64,140)" stroke-opacity="1" stroke-width="6" d=" M-135.5,-91 C-135.5,-91 140,-91 140,-91 C140,-91 140,58 140,58 C140,58 -136,58 -136,58"></path></g><g opacity="1" transform="matrix(1,0,0,1,0,0)"><path fill="rgb(170,139,230)" fill-opacity="1" d=" M148,-42.75 C140.5,-42.75 126.84500122070312,-43.1150016784668 126.84500122070312,-43.1150016784668 C126.84500122070312,-43.1150016784668 119.84500122070312,-44.3650016784668 119.84500122070312,-36.6150016784668 C119.84500122070312,-28.864999771118164 119.34500122070312,5.385000228881836 119.34500122070312,5.385000228881836 C119.34500122070312,5.385000228881836 120.59500122070312,9.385000228881836 125.34500122070312,9.385000228881836 C130.09500122070312,9.385000228881836 154.75,9.25 154.75,9.25 C154.75,9.25 158.75,8.75 158.75,4 C158.75,-0.75 158.75,-39.25 158.75,-39.25 C158.75,-39.25 155.5,-42.75 148,-42.75z"></path><path stroke-linecap="round" stroke-linejoin="miter" fill-opacity="0" stroke-miterlimit="4" stroke="rgb(89,64,140)" stroke-opacity="1" stroke-width="4" d=" M148,-42.75 C140.5,-42.75 126.84500122070312,-43.1150016784668 126.84500122070312,-43.1150016784668 C126.84500122070312,-43.1150016784668 119.84500122070312,-44.3650016784668 119.84500122070312,-36.6150016784668 C119.84500122070312,-28.864999771118164 119.34500122070312,5.385000228881836 119.34500122070312,5.385000228881836 C119.34500122070312,5.385000228881836 120.59500122070312,9.385000228881836 125.34500122070312,9.385000228881836 C130.09500122070312,9.385000228881836 154.75,9.25 154.75,9.25 C154.75,9.25 158.75,8.75 158.75,4 C158.75,-0.75 158.75,-39.25 158.75,-39.25 C158.75,-39.25 155.5,-42.75 148,-42.75z"></path></g><g opacity="1" transform="matrix(0.06975647062063217,-0.9975640773773193,0.9975640773773193,0.06975647062063217,118,-17.25)"><path fill="rgb(119,97,160)" fill-opacity="1" d=" M0,5.999996185302734 C8.278499603271484,5.999996185302734 15,12.72149658203125 15,20.999996185302734 C15,29.27849578857422 8.278499603271484,35.999996185302734 0,35.999996185302734 C-8.278499603271484,35.999996185302734 -15,29.27849578857422 -15,20.999996185302734 C-15,12.72149658203125 -8.278499603271484,5.999996185302734 0,5.999996185302734z"></path><path stroke-linecap="round" stroke-linejoin="miter" fill-opacity="0" stroke-miterlimit="4" stroke="rgb(89,64,140)" stroke-opacity="1" stroke-width="5" d=" M0,5.999996185302734 C8.278499603271484,5.999996185302734 15,12.72149658203125 15,20.999996185302734 C15,29.27849578857422 8.278499603271484,35.999996185302734 0,35.999996185302734 C-8.278499603271484,35.999996185302734 -15,29.27849578857422 -15,20.999996185302734 C-15,12.72149658203125 -8.278499603271484,5.999996185302734 0,5.999996185302734z"></path></g></g><g transform="matrix(1.2699966430664062,-0.0029392393771559,0.0023143617436289787,0.9999973177909851,713.0284423828125,752.3757934570312)" opacity="1" style="display: block;"><g opacity="1" transform="matrix(1,0,0,1,0,0)"><path stroke-linecap="round" stroke-linejoin="round" fill-opacity="0" stroke="rgb(119,58,240)" stroke-opacity="1" stroke-width="1" d=" M-72.75,-84.5 C-72.75,-84.5 134.5,-84.5 134.5,-84.5"></path></g><g opacity="1" transform="matrix(1,0,0,1,0,0)"><path stroke-linecap="round" stroke-linejoin="round" fill-opacity="0" stroke="rgb(119,58,240)" stroke-opacity="1" stroke-width="1" d=" M-73,-37.5 C-73,-37.5 134.5,-37 134.5,-37"></path></g><g opacity="1" transform="matrix(1,0,0,1,0,0)"><path stroke-linecap="round" stroke-linejoin="round" fill-opacity="0" stroke="rgb(119,58,240)" stroke-opacity="1" stroke-width="1" d=" M-72.81300354003906,-79 C-72.81300354003906,-79 134.625,-78.375 134.625,-78.375"></path></g><g opacity="1" transform="matrix(1,0,0,1,0,0)"><path stroke-linecap="round" stroke-linejoin="round" fill-opacity="0" stroke="rgb(119,58,240)" stroke-opacity="1" stroke-width="1" d=" M-72.875,-45.5 C-72.875,-45.5 134.5,-44.875 134.5,-44.875"></path></g><g opacity="1" transform="matrix(1,0,0,1,0,0)"><path stroke-linecap="round" stroke-linejoin="round" fill-opacity="0" stroke="rgb(119,58,240)" stroke-opacity="1" stroke-width="1" d=" M-72.75,-66.5 C-72.75,-66.5 134.5,-64.5 134.5,-64.5"></path></g><g opacity="1" transform="matrix(1,0,0,1,0,0)"><path stroke-linecap="round" stroke-linejoin="round" fill-opacity="0" stroke="rgb(119,58,240)" stroke-opacity="1" stroke-width="1" d=" M-72.75,-59.25 C-72.75,-59.25 134.5,-58.5 134.5,-58.5"></path></g><g opacity="1" transform="matrix(1,0,0,1,0,0)"><path stroke-linecap="round" stroke-linejoin="round" fill-opacity="0" stroke="rgb(119,58,240)" stroke-opacity="1" stroke-width="1" d=" M-72.75,-72.5 C-72.75,-72.5 134.75,-71.375 134.75,-71.375"></path></g><g opacity="1" transform="matrix(1,0,0,1,0,0)"><path stroke-linecap="round" stroke-linejoin="round" fill-opacity="0" stroke="rgb(119,58,240)" stroke-opacity="1" stroke-width="1" d=" M-72.75,-52.5 C-72.75,-52.5 134.75,-52.125 134.75,-52.125"></path></g></g><g transform="matrix(1.2699966430664062,-0.0029392393771559,0.0023143617436289787,0.9999973177909851,713.150146484375,804.8756713867188)" opacity="1" style="display: block;"><g opacity="1" transform="matrix(1,0,0,1,0,0)"><path stroke-linecap="round" stroke-linejoin="round" fill-opacity="0" stroke="rgb(119,58,240)" stroke-opacity="1" stroke-width="1" d=" M-72.75,-84.5 C-72.75,-84.5 134.5,-84.5 134.5,-84.5"></path></g><g opacity="1" transform="matrix(1,0,0,1,0,0)"><path stroke-linecap="round" stroke-linejoin="round" fill-opacity="0" stroke="rgb(119,58,240)" stroke-opacity="1" stroke-width="1" d=" M-73,-37.5 C-73,-37.5 134.5,-37 134.5,-37"></path></g><g opacity="1" transform="matrix(1,0,0,1,0,0)"><path stroke-linecap="round" stroke-linejoin="round" fill-opacity="0" stroke="rgb(119,58,240)" stroke-opacity="1" stroke-width="1" d=" M-72.81300354003906,-79 C-72.81300354003906,-79 134.625,-78.375 134.625,-78.375"></path></g><g opacity="1" transform="matrix(1,0,0,1,0,0)"><path stroke-linecap="round" stroke-linejoin="round" fill-opacity="0" stroke="rgb(119,58,240)" stroke-opacity="1" stroke-width="1" d=" M-72.875,-45.5 C-72.875,-45.5 134.5,-44.875 134.5,-44.875"></path></g><g opacity="1" transform="matrix(1,0,0,1,0,0)"><path stroke-linecap="round" stroke-linejoin="round" fill-opacity="0" stroke="rgb(119,58,240)" stroke-opacity="1" stroke-width="1" d=" M-72.75,-66.5 C-72.75,-66.5 134.5,-64.5 134.5,-64.5"></path></g><g opacity="1" transform="matrix(1,0,0,1,0,0)"><path stroke-linecap="round" stroke-linejoin="round" fill-opacity="0" stroke="rgb(119,58,240)" stroke-opacity="1" stroke-width="1" d=" M-72.75,-59.25 C-72.75,-59.25 134.5,-58.5 134.5,-58.5"></path></g><g opacity="1" transform="matrix(1,0,0,1,0,0)"><path stroke-linecap="round" stroke-linejoin="round" fill-opacity="0" stroke="rgb(119,58,240)" stroke-opacity="1" stroke-width="1" d=" M-72.75,-72.5 C-72.75,-72.5 134.75,-71.375 134.75,-71.375"></path></g><g opacity="1" transform="matrix(1,0,0,1,0,0)"><path stroke-linecap="round" stroke-linejoin="round" fill-opacity="0" stroke="rgb(119,58,240)" stroke-opacity="1" stroke-width="1" d=" M-72.75,-52.5 C-72.75,-52.5 134.75,-52.125 134.75,-52.125"></path></g></g><g transform="matrix(1.279996633529663,-0.0029623829759657383,0.0023143617436289787,0.9999973177909851,712.9276123046875,857.8763427734375)" opacity="1" style="display: block;"><g opacity="1" transform="matrix(1,0,0,1,0,0)"><path stroke-linecap="round" stroke-linejoin="round" fill-opacity="0" stroke="rgb(119,58,240)" stroke-opacity="1" stroke-width="1" d=" M-72.75,-84.5 C-72.75,-84.5 134.5,-84.5 134.5,-84.5"></path></g><g opacity="1" transform="matrix(1,0,0,1,0,0)"><path stroke-linecap="round" stroke-linejoin="round" fill-opacity="0" stroke="rgb(119,58,240)" stroke-opacity="1" stroke-width="1" d="M0 0"></path></g><g opacity="1" transform="matrix(1,0,0,1,0,0)"><path stroke-linecap="round" stroke-linejoin="round" fill-opacity="0" stroke="rgb(119,58,240)" stroke-opacity="1" stroke-width="1" d=" M-72.81300354003906,-79 C-72.81300354003906,-79 134.625,-78.375 134.625,-78.375"></path></g><g opacity="1" transform="matrix(1,0,0,1,0,0)"><path stroke-linecap="round" stroke-linejoin="round" fill-opacity="0" stroke="rgb(119,58,240)" stroke-opacity="1" stroke-width="1" d="M0 0"></path></g><g opacity="1" transform="matrix(1,0,0,1,0,0)"><path stroke-linecap="round" stroke-linejoin="round" fill-opacity="0" stroke="rgb(119,58,240)" stroke-opacity="1" stroke-width="1" d=" M-72.75,-66.5 C-72.75,-66.5 134.5,-64.5 134.5,-64.5"></path></g><g opacity="1" transform="matrix(1,0,0,1,0,0)"><path stroke-linecap="round" stroke-linejoin="round" fill-opacity="0" stroke="rgb(119,58,240)" stroke-opacity="1" stroke-width="1" d=" M-72.75,-59.25 C-72.75,-59.25 134.5,-58.5 134.5,-58.5"></path></g><g opacity="1" transform="matrix(1,0,0,1,0,0)"><path stroke-linecap="round" stroke-linejoin="round" fill-opacity="0" stroke="rgb(119,58,240)" stroke-opacity="1" stroke-width="1" d=" M-72.75,-72.5 C-72.75,-72.5 134.75,-71.375 134.75,-71.375"></path></g><g opacity="1" transform="matrix(1,0,0,1,0,0)"><path stroke-linecap="round" stroke-linejoin="round" fill-opacity="0" stroke="rgb(119,58,240)" stroke-opacity="1" stroke-width="1" d="M0 0"></path></g></g><g transform="matrix(0.9999986290931702,-0.0016511379508301616,0.0016511379508301616,0.9999986290931702,749.88427734375,749.8638916015625)" opacity="1" style="display: block;"><g opacity="1" transform="matrix(1,0,0,1,0,0)"><path fill="rgb(170,139,230)" fill-opacity="1" d=" M148,-42.75 C140.5,-42.75 126.84500122070312,-43.1150016784668 126.84500122070312,-43.1150016784668 C126.84500122070312,-43.1150016784668 119.84500122070312,-44.3650016784668 119.84500122070312,-36.6150016784668 C119.84500122070312,-28.864999771118164 119.34500122070312,5.385000228881836 119.34500122070312,5.385000228881836 C119.34500122070312,5.385000228881836 120.59500122070312,9.385000228881836 125.34500122070312,9.385000228881836 C130.09500122070312,9.385000228881836 154.75,9.25 154.75,9.25 C154.75,9.25 158.75,8.75 158.75,4 C158.75,-0.75 158.75,-39.25 158.75,-39.25 C158.75,-39.25 155.5,-42.75 148,-42.75z"></path><path stroke-linecap="round" stroke-linejoin="miter" fill-opacity="0" stroke-miterlimit="4" stroke="rgb(89,64,140)" stroke-opacity="1" stroke-width="4" d=" M148,-42.75 C140.5,-42.75 126.84500122070312,-43.1150016784668 126.84500122070312,-43.1150016784668 C126.84500122070312,-43.1150016784668 119.84500122070312,-44.3650016784668 119.84500122070312,-36.6150016784668 C119.84500122070312,-28.864999771118164 119.34500122070312,5.385000228881836 119.34500122070312,5.385000228881836 C119.34500122070312,5.385000228881836 120.59500122070312,9.385000228881836 125.34500122070312,9.385000228881836 C130.09500122070312,9.385000228881836 154.75,9.25 154.75,9.25 C154.75,9.25 158.75,8.75 158.75,4 C158.75,-0.75 158.75,-39.25 158.75,-39.25 C158.75,-39.25 155.5,-42.75 148,-42.75z"></path></g><g opacity="1" transform="matrix(0.06975647062063217,-0.9975640773773193,0.9975640773773193,0.06975647062063217,118,-17.25)"><path fill="rgb(119,97,160)" fill-opacity="1" d=" M0,5.999996185302734 C8.278499603271484,5.999996185302734 15,12.72149658203125 15,20.999996185302734 C15,29.27849578857422 8.278499603271484,35.999996185302734 0,35.999996185302734 C-8.278499603271484,35.999996185302734 -15,29.27849578857422 -15,20.999996185302734 C-15,12.72149658203125 -8.278499603271484,5.999996185302734 0,5.999996185302734z"></path><path stroke-linecap="round" stroke-linejoin="miter" fill-opacity="0" stroke-miterlimit="4" stroke="rgb(89,64,140)" stroke-opacity="1" stroke-width="5" d=" M0,5.999996185302734 C8.278499603271484,5.999996185302734 15,12.72149658203125 15,20.999996185302734 C15,29.27849578857422 8.278499603271484,35.999996185302734 0,35.999996185302734 C-8.278499603271484,35.999996185302734 -15,29.27849578857422 -15,20.999996185302734 C-15,12.72149658203125 -8.278499603271484,5.999996185302734 0,5.999996185302734z"></path></g></g></g></g></g></svg>