<svg width="24" height="24" viewBox="0 0 24 24" fill="none" xmlns="http://www.w3.org/2000/svg">
<path d="M15 4V3C15 2.46957 14.7893 1.96086 14.4142 1.58579C14.0391 1.21071 13.5304 1 13 1H3C2.46957 1 1.96086 1.21071 1.58579 1.58579C1.21071 1.96086 1 2.46957 1 3V21C1 21.5304 1.21071 22.0391 1.58579 22.4142C1.96086 22.7893 2.46957 23 3 23H13C13.5304 23 14.0391 22.7893 14.4142 22.4142C14.7893 22.0391 15 21.5304 15 21V20" stroke="#FD3C4A" stroke-width="2" stroke-linecap="round" stroke-linejoin="round"/>
<path d="M7 12H22.83" stroke="#FD3C4A" stroke-width="2" stroke-linecap="round" stroke-linejoin="round"/>
<path d="M19.5898 7.76001L22.4098 10.59C22.7823 10.9647 22.9914 11.4716 22.9914 12C22.9914 12.5284 22.7823 13.0353 22.4098 13.41L19.5898 16.24" stroke="#FD3C4A" stroke-width="2" stroke-linecap="round" stroke-linejoin="round"/>
</svg>
