<svg width="22" height="18" viewBox="0 0 22 18" fill="none" xmlns="http://www.w3.org/2000/svg">
<path d="M14.0972 10.4475V11.1975C14.0972 11.69 14.0002 12.1776 13.8117 12.6326C13.6233 13.0875 13.3471 13.5009 12.9988 13.8492C12.6506 14.1974 12.2372 14.4736 11.7823 14.6621C11.3273 14.8505 10.8396 14.9475 10.3472 14.9475H7.90219C7.89062 15.3577 7.76711 15.7569 7.54503 16.1019C7.32294 16.4469 7.01074 16.7246 6.64219 16.905C6.33481 17.0586 5.9958 17.1382 5.65219 17.1375C5.14389 17.1405 4.64955 16.9713 4.24969 16.6575L1.46719 14.475C1.19619 14.2647 0.976869 13.9952 0.825992 13.6871C0.675116 13.379 0.59668 13.0405 0.59668 12.6975C0.59668 12.3545 0.675116 12.016 0.825992 11.7079C0.976869 11.3998 1.19619 11.1303 1.46719 10.92L4.24969 8.73751C4.58494 8.46995 4.98968 8.30379 5.41622 8.25861C5.84276 8.21343 6.27333 8.29112 6.65719 8.48251C7.16834 8.72699 7.56199 9.16378 7.75219 9.69751H13.3247C13.4251 9.6945 13.525 9.71167 13.6186 9.74801C13.7122 9.78435 13.7976 9.83912 13.8696 9.90906C13.9417 9.97901 13.9989 10.0627 14.038 10.1552C14.0771 10.2477 14.0972 10.3471 14.0972 10.4475Z" fill="#D3BDFF"/>
<path d="M21.4023 5.30246C21.4024 5.64546 21.324 5.98393 21.1733 6.292C21.0225 6.60007 20.8032 6.86959 20.5323 7.07996L17.7498 9.26246C17.3444 9.57751 16.8458 9.74898 16.3323 9.74996C15.9887 9.75066 15.6497 9.67104 15.3423 9.51746C14.8312 9.27298 14.4375 8.83619 14.2473 8.30246H8.65234C8.45343 8.30246 8.26267 8.22345 8.12201 8.08279C7.98136 7.94214 7.90234 7.75138 7.90234 7.55246V6.80246C7.90234 5.8079 8.29743 4.85408 9.00069 4.15081C9.70395 3.44755 10.6578 3.05246 11.6523 3.05246H14.0973C14.1065 2.63318 14.2326 2.22479 14.4615 1.87338C14.6904 1.52197 15.013 1.24153 15.3928 1.06371C15.7726 0.885885 16.1946 0.817758 16.6111 0.867014C17.0276 0.91627 17.422 1.08095 17.7498 1.34247L20.5323 3.52496C20.8032 3.73534 21.0225 4.00486 21.1733 4.31293C21.324 4.621 21.4024 4.95947 21.4023 5.30246V5.30246Z" fill="#7F3DFF"/>
</svg>
