<svg width="20" height="10" viewBox="0 0 20 10" fill="none" xmlns="http://www.w3.org/2000/svg">
<path d="M10.0057 8.91014L10.0057 8.91L9.99385 8.91014C8.80766 8.92424 7.66396 8.46939 6.81148 7.64465L1.18004 1.95341C1.10434 1.8595 1.06504 1.74122 1.06971 1.62035C1.07457 1.49451 1.12674 1.37514 1.21578 1.2861C1.30483 1.19705 1.4242 1.14488 1.55004 1.14002C1.67054 1.13537 1.78847 1.17442 1.88224 1.24966L7.52624 6.89366L7.52612 6.89378L7.53564 6.90281C8.20082 7.53397 9.08283 7.88583 9.99979 7.88583C10.9168 7.88583 11.7988 7.53397 12.4639 6.90281L12.4641 6.90294L12.4733 6.89366L18.1173 1.24966C18.2111 1.17442 18.3291 1.13537 18.4495 1.14002C18.5754 1.14488 18.6948 1.19705 18.7838 1.2861C18.8729 1.37514 18.925 1.49451 18.9299 1.62035C18.9345 1.74122 18.8952 1.8595 18.8195 1.95341L13.1881 7.64465C12.3356 8.46939 11.1919 8.92424 10.0057 8.91014Z" fill="black" stroke="#91919F"/>
</svg>
