<svg width="24" height="24" viewBox="0 0 24 24" fill="none" xmlns="http://www.w3.org/2000/svg">
<path d="M19.91 4.09C19.6104 4.02985 19.3056 3.9997 19 4H7.00004C6.73482 4 6.48047 3.89464 6.29293 3.70711C6.1054 3.51957 6.00004 3.26522 6.00004 3C6.00004 2.73478 6.1054 2.48043 6.29293 2.29289C6.48047 2.10536 6.73482 2 7.00004 2H19C18.5343 1.37902 17.9304 0.875003 17.2361 0.527864C16.5418 0.180725 15.7763 0 15 0H5.00004C4.22381 0 3.45825 0.180725 2.76397 0.527864C2.0697 0.875003 1.46578 1.37902 1.00004 2C0.346997 2.86342 -0.00434526 3.91744 4.05678e-05 5V19C4.05678e-05 20.3261 0.526825 21.5979 1.46451 22.5355C2.40219 23.4732 3.67396 24 5.00004 24H19C20.3261 24 21.5979 23.4732 22.5356 22.5355C23.4733 21.5979 24 20.3261 24 19V9C23.9985 7.83289 23.5888 6.70309 22.8418 5.80634C22.0948 4.90959 21.0577 4.30241 19.91 4.09ZM17.24 17C17.1603 17.0096 17.0798 17.0096 17 17C16.2044 17 15.4413 16.6839 14.8787 16.1213C14.3161 15.5587 14 14.7956 14 14C14 13.2044 14.3161 12.4413 14.8787 11.8787C15.4413 11.3161 16.2044 11 17 11C17.3416 10.9978 17.6807 11.0589 18 11.18C18.6374 11.416 19.1757 11.8615 19.5268 12.4434C19.8779 13.0253 20.021 13.7092 19.9327 14.383C19.8444 15.0569 19.5299 15.6808 19.0408 16.1526C18.5516 16.6244 17.9167 16.9161 17.24 16.98V17Z" fill="#7F3DFF"/>
<path d="M17 15C17.5523 15 18 14.5523 18 14C18 13.4477 17.5523 13 17 13C16.4477 13 16 13.4477 16 14C16 14.5523 16.4477 15 17 15Z" fill="#7F3DFF"/>
</svg>
